{
 "cells": [
  {
   "cell_type": "code",
   "execution_count": 1,
   "metadata": {
    "id": "BZ8uyUerMgfs"
   },
   "outputs": [],
   "source": [
    "import wave\n",
    "import numpy as np\n",
    "import math\n",
    "import wave\n",
    "import os\n",
    "import struct\n",
    "import matplotlib.pyplot as plt\n",
    "\n",
    "\n",
    "def freq_to_number(f):\n",
    "    return 69 + 12 * np.log2(f / 440.0)\n",
    "\n",
    "\n",
    "NOTE_NAMES = [\"C\", \"C#\", \"D\", \"D#\", \"E\", \"F\", \"F#\", \"G\", \"G#\", \"A\", \"A#\", \"B\"]\n",
    "\n",
    "\n",
    "def note_name(n):\n",
    "    return NOTE_NAMES[n % 12] + str(int(n / 12 - 1))"
   ]
  },
  {
   "cell_type": "code",
   "execution_count": 14,
   "metadata": {},
   "outputs": [],
   "source": [
    "def individual_note_detect(audio_file):\n",
    "    audio_file = wave.open(audio_file)\n",
    "    # -------------------------------------------\n",
    "    # here we are just storing our sound file as a numpy array\n",
    "    # you can also use any other method to store the file as an np array\n",
    "    file_length = audio_file.getnframes()\n",
    "    counter = audio_file.getnchannels()  # number of channels mono/sterio\n",
    "    print(counter)\n",
    "    f_s = audio_file.getframerate()  # sampling frequency\n",
    "    sound = np.zeros(file_length)  # blank array\n",
    "\n",
    "\n",
    "\n",
    "    for i in range(file_length):\n",
    "        wdata = audio_file.readframes(1)\n",
    "        data = struct.unpack(\"<h\", wdata)\n",
    "        sound[i] = int(data[0])\n",
    "\n",
    "\n",
    "    curr = 0\n",
    "    times = []\n",
    "  \n",
    "\n",
    "    i = 0\n",
    "\n",
    "\n",
    "    windowlen = 2000\n",
    "\n",
    "    CAP = 1000\n",
    "\n",
    "    sound_avg = 300\n",
    "\n",
    "    while i < (len(sound) - windowlen - 200):\n",
    "        if (sound[i] < 0):\n",
    "            i += 1; continue\n",
    "        else:\n",
    "            if (sound[i+windowlen]-sound[i] >= CAP):\n",
    "                times.append(i)\n",
    "                i += windowlen * 15\n",
    "        i += 1\n",
    " \n",
    "\n",
    "    sound = np.divide(sound, float(2**15))  # scaling it to 0 - 1\n",
    "    # -------------------------------------------\n",
    "\n",
    "    fourier = np.fft.fft(sound)\n",
    "    fourier = np.absolute(fourier)\n",
    "    imax = np.argmax(fourier[0 : int(file_length / 2)])  # index of max element\n",
    "\n",
    "    #  reference: https://github.com/Amagnum/Music-notes-detection\n",
    "   \n",
    "    i_begin = -1\n",
    "    threshold = 0.3 * fourier[imax]\n",
    "    for i in range(0, imax + 100):\n",
    "        if fourier[i] >= threshold:\n",
    "            if i_begin == -1:\n",
    "                i_begin = i\n",
    "        if i_begin != -1 and fourier[i] < threshold:\n",
    "            break\n",
    "    i_end = i\n",
    "    imax = np.argmax(fourier[0 : i_end + 100])\n",
    "\n",
    "    freq = (imax * f_s) / (file_length * counter)  # formula to convert index into sound frequency\n",
    "\n",
    "    note = note_name(round(freq_to_number(freq)))\n",
    "\n",
    "    \n",
    "    return note"
   ]
  },
  {
   "cell_type": "code",
   "execution_count": 22,
   "metadata": {
    "colab": {
     "base_uri": "https://localhost:8080/"
    },
    "id": "KWtQqBEGMynU",
    "outputId": "294e69d1-d47b-4b0c-8e9c-3e90a8da8da3"
   },
   "outputs": [],
   "source": [
    "def full_note_detect(file_path):\n",
    "    audio_file = wave.open(file_path)\n",
    "    \n",
    "    file_length = audio_file.getnframes()\n",
    "    counter = audio_file.getnchannels()  # number of channels mono/sterio\n",
    "    f_s = audio_file.getframerate()  # sampling frequency\n",
    "    sound = np.zeros(file_length)  # blank array\n",
    "\n",
    "    assert counter == 1 \n",
    "\n",
    "\n",
    "    for i in range(file_length):\n",
    "        wdata = audio_file.readframes(1)\n",
    "    \n",
    "        data = struct.unpack(\"<h\", wdata)\n",
    "        sound[i] = int(data[0])\n",
    "\n",
    "    \n",
    "    windowlen = 2000\n",
    "\n",
    "    CAP = 1000\n",
    "\n",
    "    sound_avg = 300\n",
    "    \n",
    "    times = []    \n",
    "    i = 0\n",
    "\n",
    "    while i < (len(sound) - windowlen - 200):\n",
    "        if (sound[i] < 0):\n",
    "            i += 1; continue\n",
    "        else:\n",
    "            if (sound[i+windowlen]-sound[i] >= CAP):\n",
    "                times.append(i)\n",
    "                i += windowlen * 15\n",
    "        i += 1\n",
    "    \n",
    "    print(\"number of notes: \", len(times))\n",
    "\n",
    "    \n",
    "    timesinsecs = []\n",
    "    for i in range(len(times) - 1):\n",
    "        start_time = times[i]/f_s\n",
    "        end_time = (times[i+1] - 200)/f_s\n",
    "        timesinsecs.append((start_time, end_time))\n",
    "    \n",
    "    start_time = times[len(times) - 1]/f_s\n",
    "    end_time = len(sound)\n",
    "    timesinsecs.append((start_time, end_time))\n",
    "    \n",
    "    \n",
    "    os.system(\"mkdir parts\")\n",
    "    list_of_notes = []\n",
    "    \n",
    "    os.system(\"rm -rf parts/*.wav\")\n",
    "    \n",
    "    import subprocess\n",
    "    import time\n",
    "    \n",
    "    for i in range(len(timesinsecs)):\n",
    "        start_time = timesinsecs[i][0]\n",
    "        start_time = math.floor(start_time * 10)/10\n",
    "        end_time = timesinsecs[i][1]\n",
    "        end_time = math.floor(end_time * 10)/10\n",
    "        cmd_string = f\"ffmpeg -ss {start_time} -i {file_path} -t {(end_time - start_time)} -c copy parts/{i}.wav > /dev/null\"\n",
    "        os.popen(cmd_string)\n",
    "       \n",
    "        time.sleep(1)\n",
    "        list_of_notes.append(individual_note_detect(f\"parts/{i}.wav\"))\n",
    "        \n",
    "    print(list_of_notes)\n",
    "    print(timesinsecs)"
   ]
  },
  {
   "cell_type": "code",
   "execution_count": 23,
   "metadata": {},
   "outputs": [
    {
     "name": "stdout",
     "output_type": "stream",
     "text": [
      "number of notes:  13\n"
     ]
    },
    {
     "name": "stderr",
     "output_type": "stream",
     "text": [
      "mkdir: cannot create directory ‘parts’: File exists\n",
      "ffmpeg version 4.4.2-0ubuntu0.22.04.1 Copyright (c) 2000-2021 the FFmpeg developers\n",
      "  built with gcc 11 (Ubuntu 11.2.0-19ubuntu1)\n",
      "  configuration: --prefix=/usr --extra-version=0ubuntu0.22.04.1 --toolchain=hardened --libdir=/usr/lib/x86_64-linux-gnu --incdir=/usr/include/x86_64-linux-gnu --arch=amd64 --enable-gpl --disable-stripping --enable-gnutls --enable-ladspa --enable-libaom --enable-libass --enable-libbluray --enable-libbs2b --enable-libcaca --enable-libcdio --enable-libcodec2 --enable-libdav1d --enable-libflite --enable-libfontconfig --enable-libfreetype --enable-libfribidi --enable-libgme --enable-libgsm --enable-libjack --enable-libmp3lame --enable-libmysofa --enable-libopenjpeg --enable-libopenmpt --enable-libopus --enable-libpulse --enable-librabbitmq --enable-librubberband --enable-libshine --enable-libsnappy --enable-libsoxr --enable-libspeex --enable-libsrt --enable-libssh --enable-libtheora --enable-libtwolame --enable-libvidstab --enable-libvorbis --enable-libvpx --enable-libwebp --enable-libx265 --enable-libxml2 --enable-libxvid --enable-libzimg --enable-libzmq --enable-libzvbi --enable-lv2 --enable-omx --enable-openal --enable-opencl --enable-opengl --enable-sdl2 --enable-pocketsphinx --enable-librsvg --enable-libmfx --enable-libdc1394 --enable-libdrm --enable-libiec61883 --enable-chromaprint --enable-frei0r --enable-libx264 --enable-shared\n",
      "  libavutil      56. 70.100 / 56. 70.100\n",
      "  libavcodec     58.134.100 / 58.134.100\n",
      "  libavformat    58. 76.100 / 58. 76.100\n",
      "  libavdevice    58. 13.100 / 58. 13.100\n",
      "  libavfilter     7.110.100 /  7.110.100\n",
      "  libswscale      5.  9.100 /  5.  9.100\n",
      "  libswresample   3.  9.100 /  3.  9.100\n",
      "  libpostproc    55.  9.100 / 55.  9.100\n",
      "Guessed Channel Layout for Input Stream #0.0 : mono\n",
      "Input #0, wav, from 'hbd2.wav':\n",
      "  Metadata:\n",
      "    encoder         : Lavf60.3.100\n",
      "  Duration: 00:00:18.46, bitrate: 768 kb/s\n",
      "  Stream #0:0: Audio: pcm_s16le ([1][0][0][0] / 0x0001), 48000 Hz, mono, s16, 768 kb/s\n",
      "Output #0, wav, to 'parts/0.wav':\n",
      "  Metadata:\n",
      "    ISFT            : Lavf58.76.100\n",
      "  Stream #0:0: Audio: pcm_s16le ([1][0][0][0] / 0x0001), 48000 Hz, mono, s16, 768 kb/s\n",
      "Stream mapping:\n",
      "  Stream #0:0 -> #0:0 (copy)\n",
      "Press [q] to stop, [?] for help\n",
      "size=     208kB time=00:00:02.17 bitrate= 783.3kbits/s speed=3.13e+03x    \n",
      "video:0kB audio:208kB subtitle:0kB other streams:0kB global headers:0kB muxing overhead: 0.036621%\n"
     ]
    },
    {
     "name": "stdout",
     "output_type": "stream",
     "text": [
      "1\n"
     ]
    },
    {
     "name": "stderr",
     "output_type": "stream",
     "text": [
      "ffmpeg version 4.4.2-0ubuntu0.22.04.1 Copyright (c) 2000-2021 the FFmpeg developers\n",
      "  built with gcc 11 (Ubuntu 11.2.0-19ubuntu1)\n",
      "  configuration: --prefix=/usr --extra-version=0ubuntu0.22.04.1 --toolchain=hardened --libdir=/usr/lib/x86_64-linux-gnu --incdir=/usr/include/x86_64-linux-gnu --arch=amd64 --enable-gpl --disable-stripping --enable-gnutls --enable-ladspa --enable-libaom --enable-libass --enable-libbluray --enable-libbs2b --enable-libcaca --enable-libcdio --enable-libcodec2 --enable-libdav1d --enable-libflite --enable-libfontconfig --enable-libfreetype --enable-libfribidi --enable-libgme --enable-libgsm --enable-libjack --enable-libmp3lame --enable-libmysofa --enable-libopenjpeg --enable-libopenmpt --enable-libopus --enable-libpulse --enable-librabbitmq --enable-librubberband --enable-libshine --enable-libsnappy --enable-libsoxr --enable-libspeex --enable-libsrt --enable-libssh --enable-libtheora --enable-libtwolame --enable-libvidstab --enable-libvorbis --enable-libvpx --enable-libwebp --enable-libx265 --enable-libxml2 --enable-libxvid --enable-libzimg --enable-libzmq --enable-libzvbi --enable-lv2 --enable-omx --enable-openal --enable-opencl --enable-opengl --enable-sdl2 --enable-pocketsphinx --enable-librsvg --enable-libmfx --enable-libdc1394 --enable-libdrm --enable-libiec61883 --enable-chromaprint --enable-frei0r --enable-libx264 --enable-shared\n",
      "  libavutil      56. 70.100 / 56. 70.100\n",
      "  libavcodec     58.134.100 / 58.134.100\n",
      "  libavformat    58. 76.100 / 58. 76.100\n",
      "  libavdevice    58. 13.100 / 58. 13.100\n",
      "  libavfilter     7.110.100 /  7.110.100\n",
      "  libswscale      5.  9.100 /  5.  9.100\n",
      "  libswresample   3.  9.100 /  3.  9.100\n",
      "  libpostproc    55.  9.100 / 55.  9.100\n",
      "Guessed Channel Layout for Input Stream #0.0 : mono\n",
      "Input #0, wav, from 'hbd2.wav':\n",
      "  Metadata:\n",
      "    encoder         : Lavf60.3.100\n",
      "  Duration: 00:00:18.46, bitrate: 768 kb/s\n",
      "  Stream #0:0: Audio: pcm_s16le ([1][0][0][0] / 0x0001), 48000 Hz, mono, s16, 768 kb/s\n",
      "Output #0, wav, to 'parts/1.wav':\n",
      "  Metadata:\n",
      "    ISFT            : Lavf58.76.100\n",
      "  Stream #0:0: Audio: pcm_s16le ([1][0][0][0] / 0x0001), 48000 Hz, mono, s16, 768 kb/s\n",
      "Stream mapping:\n",
      "  Stream #0:0 -> #0:0 (copy)\n",
      "Press [q] to stop, [?] for help\n",
      "size=     104kB time=00:00:01.06 bitrate= 799.3kbits/s speed=4.22e+03x    \n",
      "video:0kB audio:104kB subtitle:0kB other streams:0kB global headers:0kB muxing overhead: 0.073242%\n"
     ]
    },
    {
     "name": "stdout",
     "output_type": "stream",
     "text": [
      "1\n"
     ]
    },
    {
     "name": "stderr",
     "output_type": "stream",
     "text": [
      "ffmpeg version 4.4.2-0ubuntu0.22.04.1 Copyright (c) 2000-2021 the FFmpeg developers\n",
      "  built with gcc 11 (Ubuntu 11.2.0-19ubuntu1)\n",
      "  configuration: --prefix=/usr --extra-version=0ubuntu0.22.04.1 --toolchain=hardened --libdir=/usr/lib/x86_64-linux-gnu --incdir=/usr/include/x86_64-linux-gnu --arch=amd64 --enable-gpl --disable-stripping --enable-gnutls --enable-ladspa --enable-libaom --enable-libass --enable-libbluray --enable-libbs2b --enable-libcaca --enable-libcdio --enable-libcodec2 --enable-libdav1d --enable-libflite --enable-libfontconfig --enable-libfreetype --enable-libfribidi --enable-libgme --enable-libgsm --enable-libjack --enable-libmp3lame --enable-libmysofa --enable-libopenjpeg --enable-libopenmpt --enable-libopus --enable-libpulse --enable-librabbitmq --enable-librubberband --enable-libshine --enable-libsnappy --enable-libsoxr --enable-libspeex --enable-libsrt --enable-libssh --enable-libtheora --enable-libtwolame --enable-libvidstab --enable-libvorbis --enable-libvpx --enable-libwebp --enable-libx265 --enable-libxml2 --enable-libxvid --enable-libzimg --enable-libzmq --enable-libzvbi --enable-lv2 --enable-omx --enable-openal --enable-opencl --enable-opengl --enable-sdl2 --enable-pocketsphinx --enable-librsvg --enable-libmfx --enable-libdc1394 --enable-libdrm --enable-libiec61883 --enable-chromaprint --enable-frei0r --enable-libx264 --enable-shared\n",
      "  libavutil      56. 70.100 / 56. 70.100\n",
      "  libavcodec     58.134.100 / 58.134.100\n",
      "  libavformat    58. 76.100 / 58. 76.100\n",
      "  libavdevice    58. 13.100 / 58. 13.100\n",
      "  libavfilter     7.110.100 /  7.110.100\n",
      "  libswscale      5.  9.100 /  5.  9.100\n",
      "  libswresample   3.  9.100 /  3.  9.100\n",
      "  libpostproc    55.  9.100 / 55.  9.100\n",
      "Guessed Channel Layout for Input Stream #0.0 : mono\n",
      "Input #0, wav, from 'hbd2.wav':\n",
      "  Metadata:\n",
      "    encoder         : Lavf60.3.100\n",
      "  Duration: 00:00:18.46, bitrate: 768 kb/s\n",
      "  Stream #0:0: Audio: pcm_s16le ([1][0][0][0] / 0x0001), 48000 Hz, mono, s16, 768 kb/s\n",
      "Output #0, wav, to 'parts/2.wav':\n",
      "  Metadata:\n",
      "    ISFT            : Lavf58.76.100\n",
      "  Stream #0:0: Audio: pcm_s16le ([1][0][0][0] / 0x0001), 48000 Hz, mono, s16, 768 kb/s\n",
      "Stream mapping:\n",
      "  Stream #0:0 -> #0:0 (copy)\n",
      "Press [q] to stop, [?] for help\n",
      "size=     104kB time=00:00:01.06 bitrate= 799.3kbits/s speed=2.36e+03x    \n",
      "video:0kB audio:104kB subtitle:0kB other streams:0kB global headers:0kB muxing overhead: 0.073242%\n"
     ]
    },
    {
     "name": "stdout",
     "output_type": "stream",
     "text": [
      "1\n"
     ]
    },
    {
     "name": "stderr",
     "output_type": "stream",
     "text": [
      "ffmpeg version 4.4.2-0ubuntu0.22.04.1 Copyright (c) 2000-2021 the FFmpeg developers\n",
      "  built with gcc 11 (Ubuntu 11.2.0-19ubuntu1)\n",
      "  configuration: --prefix=/usr --extra-version=0ubuntu0.22.04.1 --toolchain=hardened --libdir=/usr/lib/x86_64-linux-gnu --incdir=/usr/include/x86_64-linux-gnu --arch=amd64 --enable-gpl --disable-stripping --enable-gnutls --enable-ladspa --enable-libaom --enable-libass --enable-libbluray --enable-libbs2b --enable-libcaca --enable-libcdio --enable-libcodec2 --enable-libdav1d --enable-libflite --enable-libfontconfig --enable-libfreetype --enable-libfribidi --enable-libgme --enable-libgsm --enable-libjack --enable-libmp3lame --enable-libmysofa --enable-libopenjpeg --enable-libopenmpt --enable-libopus --enable-libpulse --enable-librabbitmq --enable-librubberband --enable-libshine --enable-libsnappy --enable-libsoxr --enable-libspeex --enable-libsrt --enable-libssh --enable-libtheora --enable-libtwolame --enable-libvidstab --enable-libvorbis --enable-libvpx --enable-libwebp --enable-libx265 --enable-libxml2 --enable-libxvid --enable-libzimg --enable-libzmq --enable-libzvbi --enable-lv2 --enable-omx --enable-openal --enable-opencl --enable-opengl --enable-sdl2 --enable-pocketsphinx --enable-librsvg --enable-libmfx --enable-libdc1394 --enable-libdrm --enable-libiec61883 --enable-chromaprint --enable-frei0r --enable-libx264 --enable-shared\n",
      "  libavutil      56. 70.100 / 56. 70.100\n",
      "  libavcodec     58.134.100 / 58.134.100\n",
      "  libavformat    58. 76.100 / 58. 76.100\n",
      "  libavdevice    58. 13.100 / 58. 13.100\n",
      "  libavfilter     7.110.100 /  7.110.100\n",
      "  libswscale      5.  9.100 /  5.  9.100\n",
      "  libswresample   3.  9.100 /  3.  9.100\n",
      "  libpostproc    55.  9.100 / 55.  9.100\n",
      "Guessed Channel Layout for Input Stream #0.0 : mono\n",
      "Input #0, wav, from 'hbd2.wav':\n",
      "  Metadata:\n",
      "    encoder         : Lavf60.3.100\n",
      "  Duration: 00:00:18.46, bitrate: 768 kb/s\n",
      "  Stream #0:0: Audio: pcm_s16le ([1][0][0][0] / 0x0001), 48000 Hz, mono, s16, 768 kb/s\n",
      "Output #0, wav, to 'parts/3.wav':\n",
      "  Metadata:\n",
      "    ISFT            : Lavf58.76.100\n",
      "  Stream #0:0: Audio: pcm_s16le ([1][0][0][0] / 0x0001), 48000 Hz, mono, s16, 768 kb/s\n",
      "Stream mapping:\n",
      "  Stream #0:0 -> #0:0 (copy)\n",
      "Press [q] to stop, [?] for help\n",
      "size=      96kB time=00:00:00.98 bitrate= 802.0kbits/s speed=2.5e+03x    \n",
      "video:0kB audio:96kB subtitle:0kB other streams:0kB global headers:0kB muxing overhead: 0.079346%\n"
     ]
    },
    {
     "name": "stdout",
     "output_type": "stream",
     "text": [
      "1\n"
     ]
    },
    {
     "name": "stderr",
     "output_type": "stream",
     "text": [
      "ffmpeg version 4.4.2-0ubuntu0.22.04.1 Copyright (c) 2000-2021 the FFmpeg developers\n",
      "  built with gcc 11 (Ubuntu 11.2.0-19ubuntu1)\n",
      "  configuration: --prefix=/usr --extra-version=0ubuntu0.22.04.1 --toolchain=hardened --libdir=/usr/lib/x86_64-linux-gnu --incdir=/usr/include/x86_64-linux-gnu --arch=amd64 --enable-gpl --disable-stripping --enable-gnutls --enable-ladspa --enable-libaom --enable-libass --enable-libbluray --enable-libbs2b --enable-libcaca --enable-libcdio --enable-libcodec2 --enable-libdav1d --enable-libflite --enable-libfontconfig --enable-libfreetype --enable-libfribidi --enable-libgme --enable-libgsm --enable-libjack --enable-libmp3lame --enable-libmysofa --enable-libopenjpeg --enable-libopenmpt --enable-libopus --enable-libpulse --enable-librabbitmq --enable-librubberband --enable-libshine --enable-libsnappy --enable-libsoxr --enable-libspeex --enable-libsrt --enable-libssh --enable-libtheora --enable-libtwolame --enable-libvidstab --enable-libvorbis --enable-libvpx --enable-libwebp --enable-libx265 --enable-libxml2 --enable-libxvid --enable-libzimg --enable-libzmq --enable-libzvbi --enable-lv2 --enable-omx --enable-openal --enable-opencl --enable-opengl --enable-sdl2 --enable-pocketsphinx --enable-librsvg --enable-libmfx --enable-libdc1394 --enable-libdrm --enable-libiec61883 --enable-chromaprint --enable-frei0r --enable-libx264 --enable-shared\n",
      "  libavutil      56. 70.100 / 56. 70.100\n",
      "  libavcodec     58.134.100 / 58.134.100\n",
      "  libavformat    58. 76.100 / 58. 76.100\n",
      "  libavdevice    58. 13.100 / 58. 13.100\n",
      "  libavfilter     7.110.100 /  7.110.100\n",
      "  libswscale      5.  9.100 /  5.  9.100\n",
      "  libswresample   3.  9.100 /  3.  9.100\n",
      "  libpostproc    55.  9.100 / 55.  9.100\n",
      "Guessed Channel Layout for Input Stream #0.0 : mono\n",
      "Input #0, wav, from 'hbd2.wav':\n",
      "  Metadata:\n",
      "    encoder         : Lavf60.3.100\n",
      "  Duration: 00:00:18.46, bitrate: 768 kb/s\n",
      "  Stream #0:0: Audio: pcm_s16le ([1][0][0][0] / 0x0001), 48000 Hz, mono, s16, 768 kb/s\n",
      "Output #0, wav, to 'parts/4.wav':\n",
      "  Metadata:\n",
      "    ISFT            : Lavf58.76.100\n",
      "  Stream #0:0: Audio: pcm_s16le ([1][0][0][0] / 0x0001), 48000 Hz, mono, s16, 768 kb/s\n",
      "Stream mapping:\n",
      "  Stream #0:0 -> #0:0 (copy)\n",
      "Press [q] to stop, [?] for help\n",
      "size=     104kB time=00:00:01.06 bitrate= 799.3kbits/s speed=3.01e+03x    \n",
      "video:0kB audio:104kB subtitle:0kB other streams:0kB global headers:0kB muxing overhead: 0.073242%\n"
     ]
    },
    {
     "name": "stdout",
     "output_type": "stream",
     "text": [
      "1\n"
     ]
    },
    {
     "name": "stderr",
     "output_type": "stream",
     "text": [
      "ffmpeg version 4.4.2-0ubuntu0.22.04.1 Copyright (c) 2000-2021 the FFmpeg developers\n",
      "  built with gcc 11 (Ubuntu 11.2.0-19ubuntu1)\n",
      "  configuration: --prefix=/usr --extra-version=0ubuntu0.22.04.1 --toolchain=hardened --libdir=/usr/lib/x86_64-linux-gnu --incdir=/usr/include/x86_64-linux-gnu --arch=amd64 --enable-gpl --disable-stripping --enable-gnutls --enable-ladspa --enable-libaom --enable-libass --enable-libbluray --enable-libbs2b --enable-libcaca --enable-libcdio --enable-libcodec2 --enable-libdav1d --enable-libflite --enable-libfontconfig --enable-libfreetype --enable-libfribidi --enable-libgme --enable-libgsm --enable-libjack --enable-libmp3lame --enable-libmysofa --enable-libopenjpeg --enable-libopenmpt --enable-libopus --enable-libpulse --enable-librabbitmq --enable-librubberband --enable-libshine --enable-libsnappy --enable-libsoxr --enable-libspeex --enable-libsrt --enable-libssh --enable-libtheora --enable-libtwolame --enable-libvidstab --enable-libvorbis --enable-libvpx --enable-libwebp --enable-libx265 --enable-libxml2 --enable-libxvid --enable-libzimg --enable-libzmq --enable-libzvbi --enable-lv2 --enable-omx --enable-openal --enable-opencl --enable-opengl --enable-sdl2 --enable-pocketsphinx --enable-librsvg --enable-libmfx --enable-libdc1394 --enable-libdrm --enable-libiec61883 --enable-chromaprint --enable-frei0r --enable-libx264 --enable-shared\n",
      "  libavutil      56. 70.100 / 56. 70.100\n",
      "  libavcodec     58.134.100 / 58.134.100\n",
      "  libavformat    58. 76.100 / 58. 76.100\n",
      "  libavdevice    58. 13.100 / 58. 13.100\n",
      "  libavfilter     7.110.100 /  7.110.100\n",
      "  libswscale      5.  9.100 /  5.  9.100\n",
      "  libswresample   3.  9.100 /  3.  9.100\n",
      "  libpostproc    55.  9.100 / 55.  9.100\n",
      "Guessed Channel Layout for Input Stream #0.0 : mono\n",
      "Input #0, wav, from 'hbd2.wav':\n",
      "  Metadata:\n",
      "    encoder         : Lavf60.3.100\n",
      "  Duration: 00:00:18.46, bitrate: 768 kb/s\n",
      "  Stream #0:0: Audio: pcm_s16le ([1][0][0][0] / 0x0001), 48000 Hz, mono, s16, 768 kb/s\n",
      "Output #0, wav, to 'parts/5.wav':\n",
      "  Metadata:\n",
      "    ISFT            : Lavf58.76.100\n",
      "  Stream #0:0: Audio: pcm_s16le ([1][0][0][0] / 0x0001), 48000 Hz, mono, s16, 768 kb/s\n",
      "Stream mapping:\n",
      "  Stream #0:0 -> #0:0 (copy)\n",
      "Press [q] to stop, [?] for help\n",
      "size=     124kB time=00:00:01.28 bitrate= 794.1kbits/s speed=3.03e+03x    \n",
      "video:0kB audio:124kB subtitle:0kB other streams:0kB global headers:0kB muxing overhead: 0.061429%\n"
     ]
    },
    {
     "name": "stdout",
     "output_type": "stream",
     "text": [
      "1\n"
     ]
    },
    {
     "name": "stderr",
     "output_type": "stream",
     "text": [
      "ffmpeg version 4.4.2-0ubuntu0.22.04.1 Copyright (c) 2000-2021 the FFmpeg developers\n",
      "  built with gcc 11 (Ubuntu 11.2.0-19ubuntu1)\n",
      "  configuration: --prefix=/usr --extra-version=0ubuntu0.22.04.1 --toolchain=hardened --libdir=/usr/lib/x86_64-linux-gnu --incdir=/usr/include/x86_64-linux-gnu --arch=amd64 --enable-gpl --disable-stripping --enable-gnutls --enable-ladspa --enable-libaom --enable-libass --enable-libbluray --enable-libbs2b --enable-libcaca --enable-libcdio --enable-libcodec2 --enable-libdav1d --enable-libflite --enable-libfontconfig --enable-libfreetype --enable-libfribidi --enable-libgme --enable-libgsm --enable-libjack --enable-libmp3lame --enable-libmysofa --enable-libopenjpeg --enable-libopenmpt --enable-libopus --enable-libpulse --enable-librabbitmq --enable-librubberband --enable-libshine --enable-libsnappy --enable-libsoxr --enable-libspeex --enable-libsrt --enable-libssh --enable-libtheora --enable-libtwolame --enable-libvidstab --enable-libvorbis --enable-libvpx --enable-libwebp --enable-libx265 --enable-libxml2 --enable-libxvid --enable-libzimg --enable-libzmq --enable-libzvbi --enable-lv2 --enable-omx --enable-openal --enable-opencl --enable-opengl --enable-sdl2 --enable-pocketsphinx --enable-librsvg --enable-libmfx --enable-libdc1394 --enable-libdrm --enable-libiec61883 --enable-chromaprint --enable-frei0r --enable-libx264 --enable-shared\n",
      "  libavutil      56. 70.100 / 56. 70.100\n",
      "  libavcodec     58.134.100 / 58.134.100\n",
      "  libavformat    58. 76.100 / 58. 76.100\n",
      "  libavdevice    58. 13.100 / 58. 13.100\n",
      "  libavfilter     7.110.100 /  7.110.100\n",
      "  libswscale      5.  9.100 /  5.  9.100\n",
      "  libswresample   3.  9.100 /  3.  9.100\n",
      "  libpostproc    55.  9.100 / 55.  9.100\n",
      "Guessed Channel Layout for Input Stream #0.0 : mono\n",
      "Input #0, wav, from 'hbd2.wav':\n",
      "  Metadata:\n",
      "    encoder         : Lavf60.3.100\n",
      "  Duration: 00:00:18.46, bitrate: 768 kb/s\n",
      "  Stream #0:0: Audio: pcm_s16le ([1][0][0][0] / 0x0001), 48000 Hz, mono, s16, 768 kb/s\n",
      "Output #0, wav, to 'parts/6.wav':\n",
      "  Metadata:\n",
      "    ISFT            : Lavf58.76.100\n",
      "  Stream #0:0: Audio: pcm_s16le ([1][0][0][0] / 0x0001), 48000 Hz, mono, s16, 768 kb/s\n",
      "Stream mapping:\n",
      "  Stream #0:0 -> #0:0 (copy)\n",
      "Press [q] to stop, [?] for help\n",
      "size=     216kB time=00:00:02.26 bitrate= 782.8kbits/s speed=2.3e+03x    \n",
      "video:0kB audio:216kB subtitle:0kB other streams:0kB global headers:0kB muxing overhead: 0.035265%\n"
     ]
    },
    {
     "name": "stdout",
     "output_type": "stream",
     "text": [
      "1\n"
     ]
    },
    {
     "name": "stderr",
     "output_type": "stream",
     "text": [
      "ffmpeg version 4.4.2-0ubuntu0.22.04.1 Copyright (c) 2000-2021 the FFmpeg developers\n",
      "  built with gcc 11 (Ubuntu 11.2.0-19ubuntu1)\n",
      "  configuration: --prefix=/usr --extra-version=0ubuntu0.22.04.1 --toolchain=hardened --libdir=/usr/lib/x86_64-linux-gnu --incdir=/usr/include/x86_64-linux-gnu --arch=amd64 --enable-gpl --disable-stripping --enable-gnutls --enable-ladspa --enable-libaom --enable-libass --enable-libbluray --enable-libbs2b --enable-libcaca --enable-libcdio --enable-libcodec2 --enable-libdav1d --enable-libflite --enable-libfontconfig --enable-libfreetype --enable-libfribidi --enable-libgme --enable-libgsm --enable-libjack --enable-libmp3lame --enable-libmysofa --enable-libopenjpeg --enable-libopenmpt --enable-libopus --enable-libpulse --enable-librabbitmq --enable-librubberband --enable-libshine --enable-libsnappy --enable-libsoxr --enable-libspeex --enable-libsrt --enable-libssh --enable-libtheora --enable-libtwolame --enable-libvidstab --enable-libvorbis --enable-libvpx --enable-libwebp --enable-libx265 --enable-libxml2 --enable-libxvid --enable-libzimg --enable-libzmq --enable-libzvbi --enable-lv2 --enable-omx --enable-openal --enable-opencl --enable-opengl --enable-sdl2 --enable-pocketsphinx --enable-librsvg --enable-libmfx --enable-libdc1394 --enable-libdrm --enable-libiec61883 --enable-chromaprint --enable-frei0r --enable-libx264 --enable-shared\n",
      "  libavutil      56. 70.100 / 56. 70.100\n",
      "  libavcodec     58.134.100 / 58.134.100\n",
      "  libavformat    58. 76.100 / 58. 76.100\n",
      "  libavdevice    58. 13.100 / 58. 13.100\n",
      "  libavfilter     7.110.100 /  7.110.100\n",
      "  libswscale      5.  9.100 /  5.  9.100\n",
      "  libswresample   3.  9.100 /  3.  9.100\n",
      "  libpostproc    55.  9.100 / 55.  9.100\n",
      "Guessed Channel Layout for Input Stream #0.0 : mono\n",
      "Input #0, wav, from 'hbd2.wav':\n",
      "  Metadata:\n",
      "    encoder         : Lavf60.3.100\n",
      "  Duration: 00:00:18.46, bitrate: 768 kb/s\n",
      "  Stream #0:0: Audio: pcm_s16le ([1][0][0][0] / 0x0001), 48000 Hz, mono, s16, 768 kb/s\n",
      "Output #0, wav, to 'parts/7.wav':\n",
      "  Metadata:\n",
      "    ISFT            : Lavf58.76.100\n",
      "  Stream #0:0: Audio: pcm_s16le ([1][0][0][0] / 0x0001), 48000 Hz, mono, s16, 768 kb/s\n",
      "Stream mapping:\n",
      "  Stream #0:0 -> #0:0 (copy)\n",
      "Press [q] to stop, [?] for help\n",
      "size=     104kB time=00:00:01.06 bitrate= 799.3kbits/s speed=2.77e+03x    \n",
      "video:0kB audio:104kB subtitle:0kB other streams:0kB global headers:0kB muxing overhead: 0.073242%\n"
     ]
    },
    {
     "name": "stdout",
     "output_type": "stream",
     "text": [
      "1\n"
     ]
    },
    {
     "name": "stderr",
     "output_type": "stream",
     "text": [
      "ffmpeg version 4.4.2-0ubuntu0.22.04.1 Copyright (c) 2000-2021 the FFmpeg developers\n",
      "  built with gcc 11 (Ubuntu 11.2.0-19ubuntu1)\n",
      "  configuration: --prefix=/usr --extra-version=0ubuntu0.22.04.1 --toolchain=hardened --libdir=/usr/lib/x86_64-linux-gnu --incdir=/usr/include/x86_64-linux-gnu --arch=amd64 --enable-gpl --disable-stripping --enable-gnutls --enable-ladspa --enable-libaom --enable-libass --enable-libbluray --enable-libbs2b --enable-libcaca --enable-libcdio --enable-libcodec2 --enable-libdav1d --enable-libflite --enable-libfontconfig --enable-libfreetype --enable-libfribidi --enable-libgme --enable-libgsm --enable-libjack --enable-libmp3lame --enable-libmysofa --enable-libopenjpeg --enable-libopenmpt --enable-libopus --enable-libpulse --enable-librabbitmq --enable-librubberband --enable-libshine --enable-libsnappy --enable-libsoxr --enable-libspeex --enable-libsrt --enable-libssh --enable-libtheora --enable-libtwolame --enable-libvidstab --enable-libvorbis --enable-libvpx --enable-libwebp --enable-libx265 --enable-libxml2 --enable-libxvid --enable-libzimg --enable-libzmq --enable-libzvbi --enable-lv2 --enable-omx --enable-openal --enable-opencl --enable-opengl --enable-sdl2 --enable-pocketsphinx --enable-librsvg --enable-libmfx --enable-libdc1394 --enable-libdrm --enable-libiec61883 --enable-chromaprint --enable-frei0r --enable-libx264 --enable-shared\n",
      "  libavutil      56. 70.100 / 56. 70.100\n",
      "  libavcodec     58.134.100 / 58.134.100\n",
      "  libavformat    58. 76.100 / 58. 76.100\n",
      "  libavdevice    58. 13.100 / 58. 13.100\n",
      "  libavfilter     7.110.100 /  7.110.100\n",
      "  libswscale      5.  9.100 /  5.  9.100\n",
      "  libswresample   3.  9.100 /  3.  9.100\n",
      "  libpostproc    55.  9.100 / 55.  9.100\n",
      "Guessed Channel Layout for Input Stream #0.0 : mono\n",
      "Input #0, wav, from 'hbd2.wav':\n",
      "  Metadata:\n",
      "    encoder         : Lavf60.3.100\n",
      "  Duration: 00:00:18.46, bitrate: 768 kb/s\n",
      "  Stream #0:0: Audio: pcm_s16le ([1][0][0][0] / 0x0001), 48000 Hz, mono, s16, 768 kb/s\n",
      "Output #0, wav, to 'parts/8.wav':\n",
      "  Metadata:\n",
      "    ISFT            : Lavf58.76.100\n",
      "  Stream #0:0: Audio: pcm_s16le ([1][0][0][0] / 0x0001), 48000 Hz, mono, s16, 768 kb/s\n",
      "Stream mapping:\n",
      "  Stream #0:0 -> #0:0 (copy)\n",
      "Press [q] to stop, [?] for help\n",
      "size=     116kB time=00:00:01.19 bitrate= 796.0kbits/s speed=2.9e+03x    \n",
      "video:0kB audio:116kB subtitle:0kB other streams:0kB global headers:0kB muxing overhead: 0.065665%\n"
     ]
    },
    {
     "name": "stdout",
     "output_type": "stream",
     "text": [
      "1\n"
     ]
    },
    {
     "name": "stderr",
     "output_type": "stream",
     "text": [
      "ffmpeg version 4.4.2-0ubuntu0.22.04.1 Copyright (c) 2000-2021 the FFmpeg developers\n",
      "  built with gcc 11 (Ubuntu 11.2.0-19ubuntu1)\n",
      "  configuration: --prefix=/usr --extra-version=0ubuntu0.22.04.1 --toolchain=hardened --libdir=/usr/lib/x86_64-linux-gnu --incdir=/usr/include/x86_64-linux-gnu --arch=amd64 --enable-gpl --disable-stripping --enable-gnutls --enable-ladspa --enable-libaom --enable-libass --enable-libbluray --enable-libbs2b --enable-libcaca --enable-libcdio --enable-libcodec2 --enable-libdav1d --enable-libflite --enable-libfontconfig --enable-libfreetype --enable-libfribidi --enable-libgme --enable-libgsm --enable-libjack --enable-libmp3lame --enable-libmysofa --enable-libopenjpeg --enable-libopenmpt --enable-libopus --enable-libpulse --enable-librabbitmq --enable-librubberband --enable-libshine --enable-libsnappy --enable-libsoxr --enable-libspeex --enable-libsrt --enable-libssh --enable-libtheora --enable-libtwolame --enable-libvidstab --enable-libvorbis --enable-libvpx --enable-libwebp --enable-libx265 --enable-libxml2 --enable-libxvid --enable-libzimg --enable-libzmq --enable-libzvbi --enable-lv2 --enable-omx --enable-openal --enable-opencl --enable-opengl --enable-sdl2 --enable-pocketsphinx --enable-librsvg --enable-libmfx --enable-libdc1394 --enable-libdrm --enable-libiec61883 --enable-chromaprint --enable-frei0r --enable-libx264 --enable-shared\n",
      "  libavutil      56. 70.100 / 56. 70.100\n",
      "  libavcodec     58.134.100 / 58.134.100\n",
      "  libavformat    58. 76.100 / 58. 76.100\n",
      "  libavdevice    58. 13.100 / 58. 13.100\n",
      "  libavfilter     7.110.100 /  7.110.100\n",
      "  libswscale      5.  9.100 /  5.  9.100\n",
      "  libswresample   3.  9.100 /  3.  9.100\n",
      "  libpostproc    55.  9.100 / 55.  9.100\n",
      "Guessed Channel Layout for Input Stream #0.0 : mono\n",
      "Input #0, wav, from 'hbd2.wav':\n",
      "  Metadata:\n",
      "    encoder         : Lavf60.3.100\n",
      "  Duration: 00:00:18.46, bitrate: 768 kb/s\n",
      "  Stream #0:0: Audio: pcm_s16le ([1][0][0][0] / 0x0001), 48000 Hz, mono, s16, 768 kb/s\n",
      "Output #0, wav, to 'parts/9.wav':\n",
      "  Metadata:\n",
      "    ISFT            : Lavf58.76.100\n",
      "  Stream #0:0: Audio: pcm_s16le ([1][0][0][0] / 0x0001), 48000 Hz, mono, s16, 768 kb/s\n",
      "Stream mapping:\n",
      "  Stream #0:0 -> #0:0 (copy)\n",
      "Press [q] to stop, [?] for help\n",
      "size=      96kB time=00:00:00.98 bitrate= 802.0kbits/s speed=2.95e+03x    \n",
      "video:0kB audio:96kB subtitle:0kB other streams:0kB global headers:0kB muxing overhead: 0.079346%\n"
     ]
    },
    {
     "name": "stdout",
     "output_type": "stream",
     "text": [
      "1\n"
     ]
    },
    {
     "name": "stderr",
     "output_type": "stream",
     "text": [
      "ffmpeg version 4.4.2-0ubuntu0.22.04.1 Copyright (c) 2000-2021 the FFmpeg developers\n",
      "  built with gcc 11 (Ubuntu 11.2.0-19ubuntu1)\n",
      "  configuration: --prefix=/usr --extra-version=0ubuntu0.22.04.1 --toolchain=hardened --libdir=/usr/lib/x86_64-linux-gnu --incdir=/usr/include/x86_64-linux-gnu --arch=amd64 --enable-gpl --disable-stripping --enable-gnutls --enable-ladspa --enable-libaom --enable-libass --enable-libbluray --enable-libbs2b --enable-libcaca --enable-libcdio --enable-libcodec2 --enable-libdav1d --enable-libflite --enable-libfontconfig --enable-libfreetype --enable-libfribidi --enable-libgme --enable-libgsm --enable-libjack --enable-libmp3lame --enable-libmysofa --enable-libopenjpeg --enable-libopenmpt --enable-libopus --enable-libpulse --enable-librabbitmq --enable-librubberband --enable-libshine --enable-libsnappy --enable-libsoxr --enable-libspeex --enable-libsrt --enable-libssh --enable-libtheora --enable-libtwolame --enable-libvidstab --enable-libvorbis --enable-libvpx --enable-libwebp --enable-libx265 --enable-libxml2 --enable-libxvid --enable-libzimg --enable-libzmq --enable-libzvbi --enable-lv2 --enable-omx --enable-openal --enable-opencl --enable-opengl --enable-sdl2 --enable-pocketsphinx --enable-librsvg --enable-libmfx --enable-libdc1394 --enable-libdrm --enable-libiec61883 --enable-chromaprint --enable-frei0r --enable-libx264 --enable-shared\n",
      "  libavutil      56. 70.100 / 56. 70.100\n",
      "  libavcodec     58.134.100 / 58.134.100\n",
      "  libavformat    58. 76.100 / 58. 76.100\n",
      "  libavdevice    58. 13.100 / 58. 13.100\n",
      "  libavfilter     7.110.100 /  7.110.100\n",
      "  libswscale      5.  9.100 /  5.  9.100\n",
      "  libswresample   3.  9.100 /  3.  9.100\n",
      "  libpostproc    55.  9.100 / 55.  9.100\n",
      "Guessed Channel Layout for Input Stream #0.0 : mono\n",
      "Input #0, wav, from 'hbd2.wav':\n",
      "  Metadata:\n",
      "    encoder         : Lavf60.3.100\n",
      "  Duration: 00:00:18.46, bitrate: 768 kb/s\n",
      "  Stream #0:0: Audio: pcm_s16le ([1][0][0][0] / 0x0001), 48000 Hz, mono, s16, 768 kb/s\n",
      "Output #0, wav, to 'parts/10.wav':\n",
      "  Metadata:\n",
      "    ISFT            : Lavf58.76.100\n",
      "  Stream #0:0: Audio: pcm_s16le ([1][0][0][0] / 0x0001), 48000 Hz, mono, s16, 768 kb/s\n",
      "Stream mapping:\n",
      "  Stream #0:0 -> #0:0 (copy)\n",
      "Press [q] to stop, [?] for help\n",
      "size=     104kB time=00:00:01.06 bitrate= 799.3kbits/s speed=2.31e+03x    \n",
      "video:0kB audio:104kB subtitle:0kB other streams:0kB global headers:0kB muxing overhead: 0.073242%\n"
     ]
    },
    {
     "name": "stdout",
     "output_type": "stream",
     "text": [
      "1\n"
     ]
    },
    {
     "name": "stderr",
     "output_type": "stream",
     "text": [
      "ffmpeg version 4.4.2-0ubuntu0.22.04.1 Copyright (c) 2000-2021 the FFmpeg developers\n",
      "  built with gcc 11 (Ubuntu 11.2.0-19ubuntu1)\n",
      "  configuration: --prefix=/usr --extra-version=0ubuntu0.22.04.1 --toolchain=hardened --libdir=/usr/lib/x86_64-linux-gnu --incdir=/usr/include/x86_64-linux-gnu --arch=amd64 --enable-gpl --disable-stripping --enable-gnutls --enable-ladspa --enable-libaom --enable-libass --enable-libbluray --enable-libbs2b --enable-libcaca --enable-libcdio --enable-libcodec2 --enable-libdav1d --enable-libflite --enable-libfontconfig --enable-libfreetype --enable-libfribidi --enable-libgme --enable-libgsm --enable-libjack --enable-libmp3lame --enable-libmysofa --enable-libopenjpeg --enable-libopenmpt --enable-libopus --enable-libpulse --enable-librabbitmq --enable-librubberband --enable-libshine --enable-libsnappy --enable-libsoxr --enable-libspeex --enable-libsrt --enable-libssh --enable-libtheora --enable-libtwolame --enable-libvidstab --enable-libvorbis --enable-libvpx --enable-libwebp --enable-libx265 --enable-libxml2 --enable-libxvid --enable-libzimg --enable-libzmq --enable-libzvbi --enable-lv2 --enable-omx --enable-openal --enable-opencl --enable-opengl --enable-sdl2 --enable-pocketsphinx --enable-librsvg --enable-libmfx --enable-libdc1394 --enable-libdrm --enable-libiec61883 --enable-chromaprint --enable-frei0r --enable-libx264 --enable-shared\n",
      "  libavutil      56. 70.100 / 56. 70.100\n",
      "  libavcodec     58.134.100 / 58.134.100\n",
      "  libavformat    58. 76.100 / 58. 76.100\n",
      "  libavdevice    58. 13.100 / 58. 13.100\n",
      "  libavfilter     7.110.100 /  7.110.100\n",
      "  libswscale      5.  9.100 /  5.  9.100\n",
      "  libswresample   3.  9.100 /  3.  9.100\n",
      "  libpostproc    55.  9.100 / 55.  9.100\n",
      "Guessed Channel Layout for Input Stream #0.0 : mono\n",
      "Input #0, wav, from 'hbd2.wav':\n",
      "  Metadata:\n",
      "    encoder         : Lavf60.3.100\n",
      "  Duration: 00:00:18.46, bitrate: 768 kb/s\n",
      "  Stream #0:0: Audio: pcm_s16le ([1][0][0][0] / 0x0001), 48000 Hz, mono, s16, 768 kb/s\n",
      "Output #0, wav, to 'parts/11.wav':\n",
      "  Metadata:\n",
      "    ISFT            : Lavf58.76.100\n",
      "  Stream #0:0: Audio: pcm_s16le ([1][0][0][0] / 0x0001), 48000 Hz, mono, s16, 768 kb/s\n",
      "Stream mapping:\n",
      "  Stream #0:0 -> #0:0 (copy)\n",
      "Press [q] to stop, [?] for help\n",
      "size=      96kB time=00:00:00.98 bitrate= 802.0kbits/s speed=3.47e+03x    \n",
      "video:0kB audio:96kB subtitle:0kB other streams:0kB global headers:0kB muxing overhead: 0.079346%\n"
     ]
    },
    {
     "name": "stdout",
     "output_type": "stream",
     "text": [
      "1\n"
     ]
    },
    {
     "name": "stderr",
     "output_type": "stream",
     "text": [
      "ffmpeg version 4.4.2-0ubuntu0.22.04.1 Copyright (c) 2000-2021 the FFmpeg developers\n",
      "  built with gcc 11 (Ubuntu 11.2.0-19ubuntu1)\n",
      "  configuration: --prefix=/usr --extra-version=0ubuntu0.22.04.1 --toolchain=hardened --libdir=/usr/lib/x86_64-linux-gnu --incdir=/usr/include/x86_64-linux-gnu --arch=amd64 --enable-gpl --disable-stripping --enable-gnutls --enable-ladspa --enable-libaom --enable-libass --enable-libbluray --enable-libbs2b --enable-libcaca --enable-libcdio --enable-libcodec2 --enable-libdav1d --enable-libflite --enable-libfontconfig --enable-libfreetype --enable-libfribidi --enable-libgme --enable-libgsm --enable-libjack --enable-libmp3lame --enable-libmysofa --enable-libopenjpeg --enable-libopenmpt --enable-libopus --enable-libpulse --enable-librabbitmq --enable-librubberband --enable-libshine --enable-libsnappy --enable-libsoxr --enable-libspeex --enable-libsrt --enable-libssh --enable-libtheora --enable-libtwolame --enable-libvidstab --enable-libvorbis --enable-libvpx --enable-libwebp --enable-libx265 --enable-libxml2 --enable-libxvid --enable-libzimg --enable-libzmq --enable-libzvbi --enable-lv2 --enable-omx --enable-openal --enable-opencl --enable-opengl --enable-sdl2 --enable-pocketsphinx --enable-librsvg --enable-libmfx --enable-libdc1394 --enable-libdrm --enable-libiec61883 --enable-chromaprint --enable-frei0r --enable-libx264 --enable-shared\n",
      "  libavutil      56. 70.100 / 56. 70.100\n",
      "  libavcodec     58.134.100 / 58.134.100\n",
      "  libavformat    58. 76.100 / 58. 76.100\n",
      "  libavdevice    58. 13.100 / 58. 13.100\n",
      "  libavfilter     7.110.100 /  7.110.100\n",
      "  libswscale      5.  9.100 /  5.  9.100\n",
      "  libswresample   3.  9.100 /  3.  9.100\n",
      "  libpostproc    55.  9.100 / 55.  9.100\n",
      "Guessed Channel Layout for Input Stream #0.0 : mono\n",
      "Input #0, wav, from 'hbd2.wav':\n",
      "  Metadata:\n",
      "    encoder         : Lavf60.3.100\n",
      "  Duration: 00:00:18.46, bitrate: 768 kb/s\n",
      "  Stream #0:0: Audio: pcm_s16le ([1][0][0][0] / 0x0001), 48000 Hz, mono, s16, 768 kb/s\n",
      "Output #0, wav, to 'parts/12.wav':\n",
      "  Metadata:\n",
      "    ISFT            : Lavf58.76.100\n",
      "  Stream #0:0: Audio: pcm_s16le ([1][0][0][0] / 0x0001), 48000 Hz, mono, s16, 768 kb/s\n",
      "Stream mapping:\n",
      "  Stream #0:0 -> #0:0 (copy)\n",
      "Press [q] to stop, [?] for help\n",
      "size=     202kB time=00:00:02.13 bitrate= 777.1kbits/s speed=3.39e+03x    \n",
      "video:0kB audio:202kB subtitle:0kB other streams:0kB global headers:0kB muxing overhead: 0.037654%\n"
     ]
    },
    {
     "name": "stdout",
     "output_type": "stream",
     "text": [
      "1\n",
      "['A2', 'G4', 'G4', 'A4', 'G4', 'C5', 'B4', 'G4', 'G4', 'A4', 'G4', 'D5', 'C5']\n",
      "[(0.80475, 3.065354166666667), (3.0695208333333333, 4.108), (4.112166666666667, 5.2482291666666665), (5.252395833333333, 6.290708333333333), (6.294875, 7.380541666666667), (7.384708333333333, 8.607333333333333), (8.6115, 10.985958333333333), (10.990125, 12.091270833333333), (12.0954375, 13.215583333333333), (13.21975, 14.280291666666667), (14.284458333333333, 15.336625), (15.340791666666666, 16.358041666666665), (16.362208333333335, 885976)]\n"
     ]
    }
   ],
   "source": [
    "full_note_detect(\"hbd2.wav\")"
   ]
  },
  {
   "cell_type": "markdown",
   "metadata": {
    "id": "FtFtYAc_UsTD"
   },
   "source": [
    "a"
   ]
  },
  {
   "cell_type": "code",
   "execution_count": null,
   "metadata": {},
   "outputs": [],
   "source": [
    "'G4', 'G4', 'A4', 'G4', 'C5', 'B4', 'G4', 'G4', 'A4', 'G4', 'D5', 'C5']"
   ]
  },
  {
   "cell_type": "markdown",
   "metadata": {},
   "source": [
    "a"
   ]
  },
  {
   "cell_type": "markdown",
   "metadata": {},
   "source": [
    "a"
   ]
  },
  {
   "cell_type": "markdown",
   "metadata": {},
   "source": []
  },
  {
   "cell_type": "markdown",
   "metadata": {},
   "source": []
  }
 ],
 "metadata": {
  "colab": {
   "provenance": []
  },
  "kernelspec": {
   "display_name": "Python 3 (ipykernel)",
   "language": "python",
   "name": "python3"
  },
  "language_info": {
   "codemirror_mode": {
    "name": "ipython",
    "version": 3
   },
   "file_extension": ".py",
   "mimetype": "text/x-python",
   "name": "python",
   "nbconvert_exporter": "python",
   "pygments_lexer": "ipython3",
   "version": "3.10.12"
  }
 },
 "nbformat": 4,
 "nbformat_minor": 4
}
